<svg viewBox="0 0 800 800" xmlns="http://www.w3.org/2000/svg"><path d="M483.91527702154775,81.08524379154642 L315.2002509379514,178.22195634415596 M315.2002509379514,178.22195634415596 L355.8623604560868,205.79310026593356 M355.8623604560868,205.79310026593356 L395.30985836709993,240.76771961452272 M395.30985836709993,240.76771961452272 L432.33718002284405,282.0812770044845 M432.33718002284405,282.0812770044845 L465.8120739383057,328.47358942831687 M465.8120739383057,328.47358942831687 L494.71085634325283,378.5277488305628 M494.71085634325283,378.5277488305628 L518.1503304848653,430.7140135622579 M518.1503304848653,430.7140135622579 L535.4152598774062,483.43739344521083 M535.4152598774062,483.43739344521083 L545.9804197654688,535.0872384261766 M545.9804197654688,535.0872384261766 L549.5266760540574,584.0872302012356 M549.5266760540574,584.0872302012356 L545.9504184659613,628.9441016852593 M545.9504184659613,628.9441016852593 L535.3662423041425,668.2935676067161 M535.3662423041425,668.2935676067161 L518.1027099702106,700.9419173981248 M518.1027099702106,700.9419173981248 L494.69155800560134,725.9020719119826 M494.69155800560134,725.9020719119826 L465.85062772124405,742.422927373259 M465.85062772124405,742.422927373259 L432.46131866885895,750.0113432742692 M432.46131866885895,750.0113432742692 L395.5411806054487,748.4460683582474 M395.5411806054487,748.4460683582474 L356.2126147304106,737.7832736019006 M356.2126147304106,737.7832736019006 L315.6687216051459,718.3538729716367 M315.6687216051459,718.3538729716367 L275.1372773654404,690.7525985200186 M275.1372773654404,690.7525985200186 L235.8439239770599,655.8194471789757 M235.8439239770599,655.8194471789757 L198.97563395584245,614.6139548187059 M198.97563395584245,614.6139548187059 L165.64547719059647,568.3832701665797 M165.64547719059647,568.3832701665797 L136.8596798362484,518.524806612467 M136.8596798362484,518.524806612467 L113.48781087578277,466.5447018155832 M113.48781087578277,466.5447018155832 L96.23695272695215,414.01307988298163 M96.23695272695215,414.01307988298163 L85.63063292555296,362.51746197824326 M85.63063292555296,362.51746197824326 L81.99295019347778,313.6155643887755 M81.99295019347778,313.6155643887755 L85.43854222999653,268.78882265884437 M85.43854222999653,268.78882265884437 L95.86857403317958,229.3978881384782 M95.86857403317958,229.3978881384782 L112.97307522370335,196.6414732063253 M112.97307522370335,196.6414732063253 L136.2394906946525,171.51969130265508 M136.2394906946525,171.51969130265508 L164.9674363585474,154.80314073826395 M164.9674363585474,154.80314073826395 L198.28914023223774,147.0085656619833 M198.28914023223774,147.0085656619833 L235.19520671020388,148.3820829974485 M235.19520671020388,148.3820829974485 L274.56493190444496,158.8906505239122 M274.56493190444496,158.8906505239122 L315.2002509379514,178.22195634415596 M483.91527702154775,81.08524379154642 L443.2763389230591,61.798796676754534 M443.2763389230591,61.798796676754534 L403.8959500082818,51.32955905649197 M403.8959500082818,51.32955905649197 L366.9725043267496,49.98865672573078 M366.9725043267496,49.98865672573078 L333.627241712104,57.80815452549683 M333.627241712104,57.80815452549683 L304.87028319959023,74.54119486949952 M304.87028319959023,74.54119486949952 L281.5702925268955,99.67055020980041 M281.5702925268955,99.67055020980041 L264.4286835134172,132.42540867233322 M264.4286835134172,132.42540867233322 L253.95914651644404,171.805717524383 M253.95914651644404,171.805717524383 L250.47285728174663,216.6130959794591 M250.47285728174663,216.6130959794591 L254.06988907109792,265.48748401087516 M254.06988907109792,265.48748401087516 L264.6368375152107,316.94827885498177 M264.6368375152107,316.94827885498177 L281.85079504208545,369.4388134919215 M281.85079504208545,369.4388134919215 L305.1893475131818,421.3728017302289 M305.1893475131818,421.3728017302289 L333.94641528567126,471.18150418888223 M333.94641528567126,471.18150418888223 L367.25329218433944,517.3602776355613 M367.25329218433944,517.3602776355613 L404.10444987471897,558.5132694719712 M404.10444987471897,558.5132694719712 L443.387331286598,593.3949126871066 M443.387331286598,593.3949126871066 L483.915277021549,620.9472276106144 M483.915277021549,620.9472276106144 L524.462749657975,640.331701795963 M524.462749657975,640.331701795963 L563.801866031214,650.9549712167479 M563.801866031214,650.9549712167479 L600.7392100638702,652.4873315806019 M600.7392100638702,652.4873315806019 L634.1518655056442,644.8736254202583 M634.1518655056442,644.8736254202583 L663.0215827823573,628.3358889848475 M663.0215827823573,628.3358889848475 L686.4660978291141,603.367793364584 M686.4660978291141,603.367793364584 L703.7665651874472,570.7207002437415 M703.7665651874472,570.7207002437415 L714.3901339074328,531.381664222502 M714.3901339074328,531.381664222502 L718.0070498065222,486.5440878889901 M718.0070498065222,486.5440878889901 L714.5014840125692,437.5716734088179 M714.5014840125692,437.5716734088179 L703.9758087025273,385.9568469167852 M703.9758087025273,385.9568469167852 L686.7479531657167,333.27485387796185 M686.7479531657167,333.27485387796185 L663.3420078658055,281.13507324328873 M663.3420078658055,281.13507324328873 L634.4721809006978,231.13106613400038 M634.4721809006978,231.13106613400038 L601.0207789732787,184.7910325873517 M601.0207789732787,184.7910325873517 L564.0107624480679,143.5302755203336 M564.0107624480679,143.5302755203336 L524.5738491490627,108.60736006383434 M524.5738491490627,108.60736006383434 L483.91527702154775,81.08524379154642 M413.86502544476167,451.0481133906957 L554.0238860077352,532.0855840864965 M554.0238860077352,532.0855840864965 L624.2922450218786,432.43782011952436 M624.2922450218786,432.43782011952436 L554.1251943947055,251.50701781557126 M554.1251943947055,251.50701781557126 L413.7638857645727,170.5864307281799 M413.7638857645727,170.5864307281799 L343.7720758288778,270.47942492282596 M343.7720758288778,270.47942492282596 L413.86502544476167,451.0481133906957 M413.86502544476167,451.0481133906957 L282.94842601506315,526.6788856117616 M554.0238860077352,532.0855840864965 L423.10720181887945,607.8424707163733 M282.94842601506315,526.6788856117616 L423.10720181887945,607.8424707163733 M343.7720758288778,270.47942492282596 L212.76103257182265,345.9928303384078 M212.76103257182265,345.9928303384078 L282.94842601506315,526.6788856117616 M413.7638857645727,170.5864307281799 L282.65804091845575,246.10811157923 M282.65804091845575,246.10811157923 L212.76103257182265,345.9928303384078 M554.1251943947055,251.50701781557126 L423.019264421481,327.1548132873624 M423.019264421481,327.1548132873624 L282.65804091845575,246.10811157923 M624.2922450218786,432.43782011952436 L493.28103210654007,508.2034552215578 M493.28103210654007,508.2034552215578 L423.019264421481,327.1548132873624 M423.10720181887945,607.8424707163733 L493.28103210654007,508.2034552215578" stroke="black"  stroke-width="4"  fill="red"/></svg>